<svg xmlns="http://www.w3.org/2000/svg" width="446.271" height="341.715" viewBox="0 0 446.271 341.715"><defs><style>.a{fill:#f0f2f5;}</style></defs><g transform="translate(0 -52.278)"><path class="a" d="M439.124,81.16H370.613V59.424a7.146,7.146,0,0,0-7.146-7.146h-49a7.146,7.146,0,0,0-7.146,7.146V81.16H138.947V59.424a7.146,7.146,0,0,0-7.146-7.146h-49a7.146,7.146,0,0,0-7.146,7.146V81.16H7.146A7.146,7.146,0,0,0,0,88.306V133.92a7.146,7.146,0,0,0,7.146,7.146H439.125a7.147,7.147,0,0,0,7.146-7.145V88.306a7.148,7.148,0,0,0-7.147-7.146Z"/><path class="a" d="M30.346,384.723a9.269,9.269,0,0,0,9.269,9.27h367.04a9.269,9.269,0,0,0,9.269-9.27V165.4H30.346Zm148.916-94.709,21.716-69.4a2.858,2.858,0,0,1,2.727-2h33.864a2.856,2.856,0,0,1,2.717,3.738l-13.221,40.839h37.217a2.857,2.857,0,0,1,2.4,4.4L216.963,344.74a2.856,2.856,0,0,1-5.22-2.009l8.028-49.005H181.99a2.86,2.86,0,0,1-2.728-3.711Z"/></g></svg>