<svg xmlns="http://www.w3.org/2000/svg" width="713.856" height="450.857" viewBox="0 0 713.856 450.857"><defs><style>.a{opacity:0.702;}.b{fill:#f0f2f5;}</style></defs><g class="a" transform="translate(0 -64.099)"><g transform="translate(407.127 126.355)"><path class="b" d="M554.628,337.876A341.04,341.04,0,0,0,537.5,246.2l-20.289-60.9A62.436,62.436,0,0,0,477.9,145.987l-25.65-8.551a82.793,82.793,0,0,1-65.863,32.7c-.428,0-.842-.056-1.266-.064l-7.045,8.217a156.12,156.12,0,0,1-81.109,50.117l-31.372,7.849a12.662,12.662,0,0,0,4.854,24.82l94.947-13.56a77.262,77.262,0,0,1,86.542,92.426L417.286,504.5a17.582,17.582,0,1,0,34.268,7.891l41.829-167.332a11.854,11.854,0,0,1,23.328,2.138l10.144,162.03A17.614,17.614,0,0,0,544.4,525.718a17.9,17.9,0,0,0,13.462-5.444A17.441,17.441,0,0,0,562.7,507.3Z" transform="translate(-255.996 -137.436)"/></g><g transform="translate(469.285 64.099)"><ellipse class="b" cx="61.993" cy="58.236" rx="61.993" ry="58.236"/></g><g transform="translate(234.664 410.758)"><circle class="b" cx="11.85" cy="11.85" r="11.85" transform="translate(0 0)"/></g><g transform="translate(186.515 354.785)"><path class="b" d="M179.255,291.632a59.258,59.258,0,1,0,59.261,59.254,59.257,59.257,0,0,0-59.261-59.254Zm0,94.815a35.554,35.554,0,1,1,35.554-35.554,35.554,35.554,0,0,1-35.554,35.554Z" transform="translate(-120.001 -291.632)"/></g><g transform="translate(0 206.416)"><path class="b" d="M66.2,171.632H0V219.04H113.612Z" transform="translate(0 -171.632)"/></g><g transform="translate(0 121.531)"><path class="b" d="M363.041,326.1l-117.069-39.04a157.845,157.845,0,0,1-24.095-10.621l96.431-160.719-20.326-12.2-96.13,160.219a157.994,157.994,0,0,1-23.091-20.454L103.7,160.691a47.535,47.535,0,0,0-35.08-15.521H0v35.554H71.111a11.844,11.844,0,0,1,8.379,3.473l71.11,71.11a11.85,11.85,0,0,1-8.382,20.232H0V429.612H155.02A82.913,82.913,0,0,1,320,441.462h35.554a23.734,23.734,0,0,0,23.7-23.7V348.571A23.67,23.67,0,0,0,363.041,326.1Z" transform="translate(0 -103.515)"/></g><g transform="translate(324.874 169.307)"><rect class="b" width="18.786" height="26.3"/></g><g transform="translate(344.523 193.174)"><rect class="b" width="22.543" height="22.543"/></g><g transform="translate(270.138 230.258)"><rect class="b" width="22.543" height="30.057"/></g><g transform="translate(383.674 120.456)"><rect class="b" width="22.543" height="22.543"/></g><g transform="translate(442.399 329.05)"><rect class="b" width="22.543" height="22.543"/></g><g transform="translate(246.647 82.885)"><rect class="b" width="22.543" height="30.057"/></g></g></svg>