<svg xmlns="http://www.w3.org/2000/svg" width="303.108" height="357.829" viewBox="0 0 303.108 357.829"><defs><style>.a{fill:#f0f2f5;}</style></defs><g transform="translate(-27.361)"><path class="a" d="M330.469,114.665H326.7V63.784l-23.988-24.1-2.455,19,8.609,8.716V114.67h-3.773v52h4.676v89.646a19,19,0,0,1-38,0V165.461h-27.99v-8.267h14.164L284.768,0H27.361L54.187,157.2H68.351V306.267H39.707v51.562H272.422V306.267H243.776v-124.8h11.99v74.851a35,35,0,1,0,70,0V166.666h4.7v-52Zm-106.281,2.53H87.939L74.766,40h162.6Z"/></g></svg>