<svg xmlns="http://www.w3.org/2000/svg" width="511.998" height="512" viewBox="0 0 511.998 512"><defs><style>.a{fill:#f0f2f5;}</style></defs><g transform="translate(-0.002)"><path class="a" d="M167.286,499.2a63.563,63.563,0,0,1-45.261-18.748L31.512,389.939a64,64,0,0,1,0-90.513l90.513-90.505a64.029,64.029,0,0,1,90.513-.008l10.573,10.641-27.392,27.392a12.8,12.8,0,0,0,0,18.1l51.209,51.209a12.815,12.815,0,0,0,18.108,0l27.392-27.392,10.607,10.547a64.078,64.078,0,0,1,.026,90.53l-90.522,90.513A63.589,63.589,0,0,1,167.286,499.2ZM140.773,330.974a38.4,38.4,0,1,0,38.4,38.4,38.4,38.4,0,0,0-38.4-38.4Z"/><path class="a" d="M186.683,256,429.891,12.8H499.2V82.1L453.3,128H409.59v43.7L255.982,325.3Z"/><path class="a" d="M486.4,0H435.2a25.569,25.569,0,0,0-18.1,7.5L223.146,201.429l-1.553-1.553a76.812,76.812,0,0,0-108.621,0L22.459,290.381a76.89,76.89,0,0,0,0,108.612l90.522,90.513a76.811,76.811,0,0,0,108.62,0L312.114,399a76.89,76.89,0,0,0,0-108.612l-1.553-1.553L414.89,184.5a25.6,25.6,0,0,0,7.5-18.1V140.8h25.6a25.569,25.569,0,0,0,18.1-7.5l38.4-38.4A25.54,25.54,0,0,0,512,76.8V25.6A25.6,25.6,0,0,0,486.4,0ZM294.006,380.894l-90.513,90.513a51.215,51.215,0,0,1-72.414,0L40.557,380.894a51.2,51.2,0,0,1,0-72.4l90.513-90.513a51.215,51.215,0,0,1,72.414,0l1.553,1.553L186.665,237.9a25.6,25.6,0,0,0,0,36.207l51.2,51.2a25.617,25.617,0,0,0,36.224,0l18.372-18.372,1.553,1.553a51.215,51.215,0,0,1-.008,72.408ZM486.4,76.8,448,115.2H396.8v51.2L255.982,307.2l-51.2-51.2L435.19,25.6h51.2V76.8Z"/><path class="a" d="M140.773,318.174a51.2,51.2,0,1,0,51.2,51.2,51.2,51.2,0,0,0-51.2-51.2Zm0,76.8a25.6,25.6,0,1,1,25.6-25.6,25.6,25.6,0,0,1-25.6,25.6Z"/></g></svg>