<svg xmlns="http://www.w3.org/2000/svg" width="633.562" height="358.688" viewBox="0 0 633.562 358.688"><defs><style>.a{opacity:0.8;}.b{fill:#f0f2f5;}</style></defs><g class="a" transform="translate(-0.001 -96.135)"><path class="b" d="M339.828,273.411H339a21.065,21.065,0,1,0,.82,42.122c.274,0,.552,0,.826,0a21.065,21.065,0,1,0-.816-42.122Z" transform="translate(136.5 76.134)"/><path class="b" d="M632.768,331.322a20.2,20.2,0,0,0-21.011-19.43l-6.553.255-.793-20.3c-.441-11.281-11.18-16.345-19.192-17.938l-14.575-25a5.72,5.72,0,0,0-4.447-2.818l-98.5-8.541L372.235,98.614a5.707,5.707,0,0,0-4.937-2.475l-213.153,8.316a5.717,5.717,0,0,0-5.172,3.817L101.3,243.8,49.231,245.83c-10.83.424-19.15,3.69-24.717,9.714s-8.179,14.565-7.758,25.4l2.126,54.083A20.243,20.243,0,0,0,.017,356.019L.771,375.3a20.172,20.172,0,0,0,20.211,19.447h.8l69.572-2.716a67.793,67.793,0,0,0,134.9-5.267L421.7,379.136a5.717,5.717,0,0,0,5.489-5.969l-.039-.62a49.221,49.221,0,1,1,98.367-3.84s0,.14,0,.15v.464a5.72,5.72,0,0,0,5.939,5.534l8.888-.346v54.582H531.2a12.866,12.866,0,1,0,0,25.732h44.036a12.866,12.866,0,1,0,0-25.732h-9.142v-55.6l48.023-1.874A20.243,20.243,0,0,0,633.548,350.6ZM158.546,425.141a42.077,42.077,0,1,1,42.074-42.076,42.078,42.078,0,0,1-42.074,42.076Z" transform="translate(0 0)"/></g></svg>