<svg xmlns="http://www.w3.org/2000/svg" width="629.432" height="378.606" viewBox="0 0 629.432 378.606"><defs><style>.a{fill:#f0f2f5;opacity:0.697;}</style></defs><g transform="translate(-31 -5)"><path class="a" d="M522.365,117.6a12.4,12.4,0,0,0-12.238,11.956V144.62a12.4,12.4,0,0,0,12.238,11.956h8.123L380.437,304.168l-3.19-11.258c-3.187-10.451-11.524-23.109-34.242-20.7l-88.161,4.034-59.756-54.362a40.326,40.326,0,0,0-39.181-11.258L0,251.527v27.13H.823l63.665-16.781L81.655,321.66,0,343.16v126.8c9.086,19.844,31.567,30.316,53.069,24.72,22.754-6.217,36.925-28.334,32.7-51.046l157.565-41.392c7.894,21.909,31.8,34.111,54.715,27.93,22.753-6.217,36.923-28.332,32.7-51.042L375.7,367.176c10.7-3.114,18.82-10.451,15.429-23.109l-4.112-15.073L564.125,156.068h25.3V259.777h40.008V117.6ZM47.311,475.594c-12.837,3.5-26.146-3.836-29.724-16.378a23.512,23.512,0,0,1,16.765-29.04,8.882,8.882,0,0,1,5.759-1.607,23.19,23.19,0,0,1,24.582,17.583,24.708,24.708,0,0,1-17.381,29.442Zm61.3-161.973-16.249-60.6,58.726-15.073h8.933a35.27,35.27,0,0,1,20.364,9.544l39.181,37.58ZM292.193,410.18C279.14,413.6,265.7,406.116,262.06,393.4a24.942,24.942,0,0,1,18-29.442,5.348,5.348,0,0,0,4.939,0A23.469,23.469,0,0,1,306.985,399.4a23.971,23.971,0,0,1-14.8,10.783ZM484,298.548V426.861c0,11.956,3.19,21.5,22.834,21.5h27.769c1.924,26.844,24.7,47.7,52.246,47.842A50.028,50.028,0,0,0,629.228,473.9V277.852c.823-.8-122.483-.8-122.483-.8C486.473,277.048,484,285.787,484,298.548ZM586.853,416.6a27.925,27.925,0,0,1,19.69,7.894,26.638,26.638,0,0,1,8.08,19.236c.165,15.181-12.232,27.652-27.769,27.934-15.714-.181-28.407-12.582-28.592-27.934.9-14.911,13.31-26.681,28.592-27.12Z" transform="translate(31 -112.6)"/></g></svg>